<?xml version="1.0" standalone="no"?>
<!DOCTYPE svg PUBLIC "-//W3C//DTD SVG 20010904//EN"
 "http://www.w3.org/TR/2001/REC-SVG-20010904/DTD/svg10.dtd">
<svg version="1.0" xmlns="http://www.w3.org/2000/svg"
 width="512.000000pt" height="512.000000pt" viewBox="0 0 512.000000 512.000000"
 preserveAspectRatio="xMidYMid meet">
<metadata>
Created by potrace 1.16, written by Peter Selinger 2001-2019
</metadata>
<g transform="translate(0.000000,512.000000) scale(0.100000,-0.100000)"
fill="#000000" stroke="none">
<path d="M1273 4162 c-700 -350 -1273 -639 -1273 -642 0 -3 576 -293 1280
-645 l1280 -640 1280 640 c704 352 1280 642 1280 645 0 8 -2548 1280 -2563
1279 -6 0 -585 -287 -1284 -637z m2132 -214 c465 -233 845 -425 845 -428 0 -3
-380 -195 -845 -428 l-845 -422 -845 422 c-465 233 -845 425 -845 428 0 4
1674 846 1687 849 2 1 383 -189 848 -421z"/>
<path d="M253 2692 c-139 -70 -253 -129 -253 -132 0 -3 576 -293 1280 -645
l1280 -640 1280 640 c704 352 1280 642 1280 645 0 3 -116 63 -258 134 l-257
128 -1023 -511 -1022 -511 -1020 510 c-561 280 -1023 510 -1027 509 -5 0 -122
-57 -260 -127z"/>
<path d="M253 1732 c-139 -70 -253 -129 -253 -132 0 -3 576 -293 1280 -645
l1280 -640 1280 640 c704 352 1280 642 1280 645 0 3 -116 63 -258 134 l-257
128 -1023 -511 -1022 -511 -1020 510 c-561 280 -1023 510 -1027 509 -5 0 -122
-57 -260 -127z"/>
</g>
</svg>
