<?xml version="1.0" standalone="no"?>
<!DOCTYPE svg PUBLIC "-//W3C//DTD SVG 20010904//EN"
 "http://www.w3.org/TR/2001/REC-SVG-20010904/DTD/svg10.dtd">
<svg version="1.0" xmlns="http://www.w3.org/2000/svg"
 width="512.000000pt" height="512.000000pt" viewBox="0 0 512.000000 512.000000"
 preserveAspectRatio="xMidYMid meet">
<metadata>
Created by potrace 1.16, written by Peter Selinger 2001-2019
</metadata>
<g transform="translate(0.000000,512.000000) scale(0.100000,-0.100000)"
fill="#000000" stroke="none">
<path d="M1075 4461 c-16 -10 -118 -108 -226 -217 -287 -290 -287 -270 -1
-554 109 -108 409 -405 668 -662 l471 -466 -659 -659 c-363 -362 -666 -670
-674 -685 -18 -35 -18 -101 0 -136 8 -15 108 -120 223 -233 221 -220 234 -228
311 -214 32 6 120 89 704 673 l668 667 667 -667 c584 -583 673 -667 705 -673
77 -14 91 -5 297 199 232 229 251 253 251 313 0 24 -5 54 -11 66 -6 12 -310
321 -675 687 l-664 665 665 655 c365 360 668 665 674 678 19 40 13 116 -11
148 -38 51 -392 405 -420 420 -31 16 -95 18 -131 5 -13 -5 -319 -302 -681
-660 -361 -358 -661 -651 -666 -651 -5 0 -304 291 -665 647 -360 356 -665 653
-678 660 -34 19 -107 16 -142 -6z"/>
</g>
</svg>
