<?xml version="1.0" standalone="no"?>
<!DOCTYPE svg PUBLIC "-//W3C//DTD SVG 20010904//EN"
 "http://www.w3.org/TR/2001/REC-SVG-20010904/DTD/svg10.dtd">
<svg version="1.0" xmlns="http://www.w3.org/2000/svg"
 width="840.000000pt" height="859.000000pt" viewBox="0 0 840.000000 859.000000"
 preserveAspectRatio="xMidYMid meet">
<metadata>
Created by potrace 1.16, written by Peter Selinger 2001-2019
</metadata>
<g transform="translate(0.000000,859.000000) scale(0.100000,-0.100000)"
fill="#000000" stroke="none">
<path d="M3305 8540 c-11 -4 -40 -14 -65 -21 -25 -7 -47 -16 -50 -19 -3 -3
-23 -14 -45 -25 -53 -27 -176 -153 -200 -204 -10 -23 -22 -41 -27 -41 -4 0 -8
-13 -8 -29 0 -17 -4 -33 -10 -36 -5 -3 -10 -31 -10 -61 0 -30 -4 -54 -10 -54
-6 0 -10 -102 -10 -285 l0 -285 -849 0 c-556 0 -852 -3 -856 -10 -3 -5 -19
-10 -36 -10 -16 0 -29 -4 -29 -10 0 -5 -9 -10 -20 -10 -11 0 -20 -4 -20 -10 0
-5 -9 -10 -20 -10 -11 0 -20 -4 -20 -10 0 -5 -7 -10 -15 -10 -8 0 -24 -8 -36
-17 -42 -36 -79 -71 -79 -77 0 -3 -14 -20 -30 -38 -17 -17 -30 -37 -30 -44 0
-8 -4 -14 -9 -14 -5 0 -11 -8 -14 -17 -3 -10 -16 -43 -28 -73 -23 -54 -23 -63
-24 -430 0 -337 2 -380 18 -424 24 -66 74 -156 98 -177 10 -9 19 -20 19 -24 0
-4 10 -16 22 -27 13 -11 35 -30 50 -44 15 -13 35 -24 43 -24 8 0 15 -4 15 -10
0 -5 9 -10 20 -10 11 0 20 -4 20 -10 0 -5 9 -10 20 -10 11 0 20 -4 20 -10 0
-5 16 -10 35 -10 19 0 35 -4 35 -9 0 -6 24 -11 53 -13 l52 -3 5 -2465 c6
-2655 2 -2475 50 -2626 6 -17 10 -38 10 -47 0 -9 5 -17 10 -17 6 0 10 -13 10
-30 0 -16 5 -30 10 -30 6 0 10 -9 10 -20 0 -11 5 -20 10 -20 6 0 10 -8 10 -17
0 -10 9 -29 20 -43 11 -14 20 -29 20 -33 0 -5 6 -14 12 -22 7 -7 22 -25 33
-41 11 -15 30 -38 43 -50 12 -13 22 -28 22 -35 0 -12 11 -23 89 -87 24 -21 55
-47 67 -60 13 -12 28 -22 34 -22 5 0 10 -4 10 -10 0 -5 9 -10 20 -10 11 0 20
-4 20 -10 0 -5 6 -10 14 -10 8 0 16 -3 18 -7 5 -12 157 -80 208 -93 25 -7 53
-16 62 -21 10 -5 36 -9 58 -9 22 0 40 -4 40 -10 0 -7 680 -10 2020 -10 1196 0
2020 4 2020 9 0 5 21 11 48 14 88 9 102 14 225 71 43 20 82 36 88 36 5 0 9 5
9 10 0 6 6 10 13 10 7 0 23 9 35 20 12 11 26 20 32 20 6 0 21 10 34 22 12 13
39 37 60 53 61 48 96 82 96 94 0 7 10 22 23 35 12 12 31 35 42 50 11 16 26 34
33 41 6 8 12 21 12 29 0 9 5 16 10 16 6 0 10 7 10 15 0 8 5 15 10 15 6 0 10 9
10 20 0 11 5 20 10 20 6 0 10 9 10 20 0 11 5 20 10 20 6 0 10 14 10 30 0 17 3
30 8 30 4 0 15 28 25 63 10 34 24 76 30 92 9 23 13 650 17 2515 l5 2485 50 3
c28 2 54 7 60 13 5 5 22 9 37 9 15 0 28 5 28 10 0 6 9 10 20 10 11 0 20 5 20
10 0 6 11 10 25 10 14 0 25 5 25 10 0 6 7 10 15 10 8 0 15 5 15 10 0 6 5 10
10 10 11 0 80 65 80 75 0 3 14 20 31 38 34 35 79 120 79 149 0 10 5 18 10 18
6 0 10 25 10 55 0 30 5 55 10 55 6 0 10 108 10 305 0 197 -4 305 -10 305 -5 0
-10 25 -10 55 0 30 -4 55 -10 55 -5 0 -10 8 -10 18 0 27 -46 117 -77 152 -71
79 -102 110 -112 110 -6 0 -11 5 -11 10 0 6 -7 10 -15 10 -8 0 -15 5 -15 10 0
6 -11 10 -25 10 -14 0 -25 5 -25 10 0 6 -9 10 -20 10 -11 0 -20 4 -20 9 0 5
-15 12 -32 17 -18 4 -417 9 -885 11 l-853 3 0 290 c0 187 -4 290 -10 290 -5 0
-10 25 -10 55 0 30 -4 55 -10 55 -5 0 -10 14 -10 30 0 17 -4 30 -10 30 -5 0
-10 9 -10 20 0 11 -4 20 -9 20 -5 0 -13 9 -16 20 -17 53 -214 220 -260 220 -8
0 -15 5 -15 10 0 6 -15 10 -34 10 -19 0 -38 5 -41 10 -8 12 -1780 13 -1810 0z
m1505 -535 c30 -8 56 -19 58 -25 2 -5 9 -10 15 -10 21 0 63 -44 90 -93 26 -47
27 -52 27 -222 l0 -175 -790 0 -790 0 0 174 c0 170 1 175 27 222 28 51 69 94
90 94 6 0 13 4 15 9 2 4 23 15 48 24 65 22 1126 25 1210 2z m2135 -1065 c3 -5
15 -10 25 -10 32 0 91 -54 135 -123 22 -33 25 -49 25 -127 0 -50 -4 -90 -9
-90 -5 0 -14 -14 -22 -31 -21 -52 -97 -119 -134 -119 -14 0 -25 -4 -25 -10 0
-7 -917 -10 -2730 -10 -1813 0 -2730 3 -2730 10 0 6 -11 10 -25 10 -14 0 -36
10 -49 23 -13 12 -33 29 -44 37 -40 26 -72 110 -72 183 0 74 33 161 72 187 11
8 31 25 44 38 13 12 35 22 49 22 14 0 25 5 25 10 0 14 5456 14 5465 0z m-347
-3480 c1 -1682 -1 -2440 -9 -2475 -5 -27 -13 -62 -16 -78 -3 -15 -9 -27 -14
-27 -5 0 -9 -9 -9 -20 0 -11 -4 -20 -10 -20 -5 0 -10 -7 -10 -15 0 -8 -4 -15
-10 -15 -5 0 -10 -7 -10 -15 0 -8 -4 -15 -10 -15 -5 0 -10 -5 -10 -10 0 -12
-65 -80 -76 -80 -4 0 -14 -9 -24 -20 -20 -23 -135 -79 -194 -94 -59 -15 -3904
-15 -3966 0 -50 12 -143 54 -148 66 -2 4 -11 8 -21 8 -9 0 -23 9 -31 20 -8 11
-18 20 -23 20 -14 0 -97 92 -97 107 0 7 -4 13 -10 13 -5 0 -10 7 -10 15 0 8
-4 15 -10 15 -5 0 -10 9 -10 19 0 11 -4 23 -10 26 -5 3 -10 16 -10 29 0 12 -6
28 -12 34 -10 10 -14 520 -16 2465 -1 1348 0 2457 3 2464 3 11 474 13 2387 11
l2383 -3 3 -2425z"/>
<path d="M2810 4810 c0 -5 -11 -10 -25 -10 -14 0 -25 -4 -25 -10 0 -5 -7 -10
-16 -10 -22 0 -78 -63 -106 -119 l-23 -46 0 -1655 0 -1655 22 -47 c63 -136
222 -199 348 -138 78 38 129 96 153 175 10 31 12 397 10 1680 l-3 1640 -23 46
c-28 56 -84 119 -106 119 -9 0 -16 5 -16 10 0 6 -11 10 -25 10 -14 0 -25 5
-25 10 0 6 -30 10 -70 10 -40 0 -70 -4 -70 -10z"/>
<path d="M4140 4810 c0 -5 -13 -10 -28 -10 -16 0 -34 -8 -42 -20 -8 -11 -22
-20 -32 -20 -10 0 -18 -7 -18 -15 0 -8 -4 -15 -10 -15 -5 0 -10 -7 -10 -15 0
-8 -3 -15 -7 -15 -5 0 -17 -21 -28 -48 -20 -46 -20 -69 -20 -1692 0 -1571 1
-1647 18 -1692 10 -27 23 -48 28 -48 5 0 9 -7 9 -16 0 -17 23 -44 37 -44 5 0
19 -9 31 -20 27 -26 128 -52 167 -44 55 11 100 29 116 46 9 10 22 18 28 18 18
0 32 17 66 80 l30 55 0 1673 c0 1104 -3 1675 -10 1680 -5 4 -19 24 -29 45 -11
20 -23 37 -28 37 -4 0 -8 7 -8 15 0 8 -8 15 -18 15 -10 0 -24 9 -32 20 -8 12
-26 20 -42 20 -15 0 -28 5 -28 10 0 6 -30 10 -70 10 -40 0 -70 -4 -70 -10z"/>
<path d="M5470 4810 c0 -5 -11 -10 -25 -10 -14 0 -25 -4 -25 -10 0 -5 -7 -10
-15 -10 -24 0 -78 -59 -105 -115 l-25 -50 0 -1655 0 -1655 25 -50 c111 -226
410 -205 497 35 10 28 13 377 13 1670 0 1694 0 1658 -39 1729 -20 35 -78 91
-96 91 -8 0 -15 5 -15 10 0 6 -9 10 -20 10 -11 0 -20 5 -20 10 0 6 -32 10 -75
10 -43 0 -75 -4 -75 -10z"/>
</g>
</svg>
