<?xml version="1.0" standalone="no"?>
<!DOCTYPE svg PUBLIC "-//W3C//DTD SVG 20010904//EN"
 "http://www.w3.org/TR/2001/REC-SVG-20010904/DTD/svg10.dtd">
<svg version="1.0" xmlns="http://www.w3.org/2000/svg"
 width="840.000000pt" height="760.000000pt" viewBox="0 0 840.000000 760.000000"
 preserveAspectRatio="xMidYMid meet">
<metadata>
Created by potrace 1.16, written by Peter Selinger 2001-2019
</metadata>
<g transform="translate(0.000000,760.000000) scale(0.100000,-0.100000)"
fill="#A3A3A3" stroke="none">
<path d="M655 7185 c-424 -94 -591 -609 -299 -924 32 -35 83 -79 111 -98 29
-18 171 -79 315 -134 991 -380 2276 -872 3038 -1164 355 -136 807 -309 1005
-385 198 -76 574 -220 835 -320 261 -100 481 -185 488 -189 9 -5 -9 -17 -50
-36 -83 -37 -692 -312 -1198 -540 -223 -101 -614 -277 -870 -393 -256 -115
-906 -409 -1445 -652 -539 -243 -1072 -484 -1185 -535 -113 -51 -358 -161
-545 -245 -187 -85 -362 -168 -390 -185 -112 -71 -217 -223 -244 -353 -39
-189 17 -372 158 -513 140 -140 316 -194 502 -155 75 16 104 28 404 164 320
145 541 245 2540 1147 996 449 2017 911 2270 1025 253 114 761 344 1130 510
368 166 693 318 723 337 182 121 277 361 231 585 -27 131 -125 274 -240 348
-66 43 119 -29 -2789 1083 -597 228 -1344 514 -1660 635 -316 121 -1018 390
-1560 597 -542 207 -1014 383 -1050 391 -80 17 -146 17 -225 -1z"/>
</g>
</svg>
