<?xml version="1.0" standalone="no"?>
<!DOCTYPE svg PUBLIC "-//W3C//DTD SVG 20010904//EN"
 "http://www.w3.org/TR/2001/REC-SVG-20010904/DTD/svg10.dtd">
<svg version="1.0" xmlns="http://www.w3.org/2000/svg"
 width="200.000000pt" height="200.000000pt" viewBox="0 0 200.000000 200.000000"
 preserveAspectRatio="xMidYMid meet">
<metadata>
Created by potrace 1.16, written by Peter Selinger 2001-2019
</metadata>
<g transform="translate(0.000000,200.000000) scale(0.100000,-0.100000)"
fill="#000000" stroke="none">
<path d="M980 1763 c-8 -3 -210 -161 -448 -351 -297 -237 -434 -352 -438 -369
-9 -33 21 -65 57 -61 19 2 162 110 437 329 l410 327 413 -329 c422 -337 447
-353 478 -315 7 8 11 27 9 43 -2 24 -65 77 -393 340 -406 326 -493 394 -504
392 -3 0 -13 -3 -21 -6z"/>
<path d="M392 1028 c-17 -17 -17 -739 0 -756 9 -9 70 -12 213 -12 183 0 203 2
218 18 15 16 17 46 17 209 0 181 1 192 23 224 51 77 133 99 207 58 71 -40 80
-71 80 -281 0 -150 3 -188 16 -206 15 -22 20 -22 219 -22 199 0 204 0 219 22
24 34 24 702 0 736 -17 24 -62 30 -82 10 -9 -9 -12 -97 -12 -335 l0 -323 -125
0 -125 0 0 163 c0 181 -10 220 -73 285 -56 58 -102 77 -192 77 -88 0 -125 -14
-183 -69 -69 -64 -76 -92 -80 -283 l-4 -173 -119 0 -119 0 0 313 c0 267 -2
316 -16 335 -17 24 -62 30 -82 10z"/>
</g>
</svg>
