<?xml version="1.0" standalone="no"?>
<!DOCTYPE svg PUBLIC "-//W3C//DTD SVG 20010904//EN"
 "http://www.w3.org/TR/2001/REC-SVG-20010904/DTD/svg10.dtd">
<svg version="1.0" xmlns="http://www.w3.org/2000/svg"
 width="840.000000pt" height="670.000000pt" viewBox="0 0 840.000000 670.000000"
 preserveAspectRatio="xMidYMid meet">
<metadata>
Created by potrace 1.16, written by Peter Selinger 2001-2019
</metadata>
<g transform="translate(0.000000,670.000000) scale(0.100000,-0.100000)"
fill="#000000" stroke="none">
<path d="M1110 6289 c-52 -5 -126 -18 -165 -30 -95 -29 -216 -80 -213 -90 2
-5 262 -235 578 -511 316 -277 895 -782 1285 -1123 391 -342 910 -795 1154
-1009 278 -243 449 -385 458 -382 7 3 242 205 520 448 279 244 903 789 1387
1212 485 423 1033 902 1219 1065 185 162 337 298 337 302 0 10 -128 62 -215
88 -38 12 -122 25 -185 31 -142 12 -6021 11 -6160 -1z"/>
<path d="M326 5778 c-34 -59 -84 -187 -104 -266 -15 -61 -17 -255 -20 -2162
-3 -2185 -3 -2178 40 -2319 25 -83 79 -202 89 -199 5 2 174 187 375 413 202
226 476 532 609 680 1162 1297 1535 1718 1530 1725 -3 4 -409 361 -902 792
-493 430 -1050 917 -1237 1081 -187 163 -344 297 -348 297 -4 0 -18 -19 -32
-42z"/>
<path d="M7574 5418 c-253 -222 -812 -710 -1242 -1086 -430 -376 -782 -685
-782 -688 0 -2 404 -456 897 -1007 494 -551 1059 -1182 1256 -1402 196 -220
361 -401 365 -403 10 -3 49 77 79 163 55 162 53 65 53 2309 0 2227 2 2146 -50
2301 -24 73 -91 207 -105 212 -6 2 -218 -178 -471 -399z"/>
<path d="M3030 3093 c-107 -120 -305 -342 -441 -493 -1098 -1225 -1909 -2135
-1909 -2142 0 -10 131 -76 200 -100 159 -56 -73 -52 3245 -56 2113 -2 3082 0
3156 8 58 5 139 19 180 31 79 22 259 102 259 116 0 5 -139 163 -308 353 -1443
1614 -2234 2495 -2241 2498 -5 2 -191 -157 -415 -352 -223 -196 -424 -365
-446 -376 -58 -30 -118 -35 -182 -16 -50 14 -93 49 -473 381 -230 201 -420
365 -424 365 -4 0 -94 -98 -201 -217z"/>
</g>
</svg>
