<?xml version="1.0" standalone="no"?>
<!DOCTYPE svg PUBLIC "-//W3C//DTD SVG 20010904//EN"
 "http://www.w3.org/TR/2001/REC-SVG-20010904/DTD/svg10.dtd">
<svg version="1.0" xmlns="http://www.w3.org/2000/svg"
 width="1024.000000pt" height="1024.000000pt" viewBox="0 0 1024.000000 1024.000000"
 preserveAspectRatio="xMidYMid meet">
<metadata>
Created by potrace 1.16, written by Peter Selinger 2001-2019
</metadata>
<g transform="translate(0.000000,1024.000000) scale(0.100000,-0.100000)"
fill="#000000" stroke="none">
<path d="M1105 8301 c-222 -64 -392 -238 -449 -458 -21 -80 -21 -246 0 -327
43 -167 168 -325 320 -404 153 -79 -244 -72 4144 -72 4388 0 3991 -7 4144 72
109 57 207 155 263 263 55 107 73 181 73 305 0 124 -18 198 -73 305 -56 108
-154 206 -262 262 -156 80 262 73 -4151 72 -3726 0 -3952 -1 -4009 -18z"/>
<path d="M1105 5741 c-222 -64 -392 -238 -449 -458 -21 -80 -21 -246 0 -327
43 -167 168 -325 320 -404 153 -79 -244 -72 4144 -72 4388 0 3991 -7 4144 72
109 57 207 155 263 263 55 107 73 181 73 305 0 124 -18 198 -73 305 -56 108
-154 206 -262 262 -156 80 262 73 -4151 72 -3726 0 -3952 -1 -4009 -18z"/>
<path d="M1105 3181 c-222 -64 -392 -238 -449 -458 -21 -80 -21 -246 0 -327
43 -167 168 -325 320 -404 153 -79 -244 -72 4144 -72 4388 0 3991 -7 4144 72
109 57 207 155 263 263 55 107 73 181 73 305 0 124 -18 198 -73 305 -56 108
-154 206 -262 262 -156 80 262 73 -4151 72 -3726 0 -3952 -1 -4009 -18z"/>
</g>
</svg>
