<?xml version="1.0" standalone="no"?>
<!DOCTYPE svg PUBLIC "-//W3C//DTD SVG 20010904//EN"
 "http://www.w3.org/TR/2001/REC-SVG-20010904/DTD/svg10.dtd">
<svg version="1.0" xmlns="http://www.w3.org/2000/svg"
 width="320.000000pt" height="431.000000pt" viewBox="0 0 320.000000 431.000000"
 preserveAspectRatio="xMidYMid meet">
<metadata>
Created by potrace 1.16, written by Peter Selinger 2001-2019
</metadata>
<g transform="translate(0.000000,431.000000) scale(0.100000,-0.100000)"
fill="#000000" stroke="none">
<path d="M825 4303 c-11 -2 -55 -10 -97 -19 -316 -60 -559 -233 -664 -471 -50
-113 -64 -201 -64 -415 0 -674 146 -1402 367 -1832 47 -90 196 -318 322 -491
149 -206 305 -390 465 -551 236 -235 426 -372 631 -455 144 -58 204 -69 379
-69 153 0 164 1 279 35 147 44 273 93 397 155 127 64 160 83 160 95 -1 6 -223
184 -495 397 l-493 388 -55 -25 c-161 -71 -294 -51 -396 60 -84 93 -264 412
-600 1061 -211 410 -229 457 -216 584 11 118 84 228 184 280 35 17 41 25 41
53 0 17 -7 301 -17 630 l-17 597 -45 -1 c-26 -1 -55 -3 -66 -6z"/>
<path d="M1044 3853 c8 -539 18 -746 37 -769 33 -40 176 20 262 110 l59 61 -7
440 c-8 504 -2 475 -102 541 -75 50 -142 74 -205 74 l-51 0 7 -457z"/>
<path d="M2218 1232 c-70 -37 -127 -71 -127 -77 0 -9 998 -806 1018 -813 4 -1
27 60 50 137 48 152 51 211 17 264 -17 25 -332 277 -556 445 -184 137 -218
141 -402 44z"/>
</g>
</svg>
