<?xml version="1.0" standalone="no"?>
<!DOCTYPE svg PUBLIC "-//W3C//DTD SVG 20010904//EN"
 "http://www.w3.org/TR/2001/REC-SVG-20010904/DTD/svg10.dtd">
<svg version="1.0" xmlns="http://www.w3.org/2000/svg"
 width="860.000000pt" height="900.000000pt" viewBox="0 0 860.000000 900.000000"
 preserveAspectRatio="xMidYMid meet">
<metadata>
Created by potrace 1.16, written by Peter Selinger 2001-2019
</metadata>
<g transform="translate(0.000000,900.000000) scale(0.100000,-0.100000)"
fill="#000000" stroke="none">
<path d="M2995 8590 c-217 -20 -546 -101 -791 -195 -365 -140 -703 -357 -988
-635 -259 -252 -442 -501 -600 -817 -529 -1060 -382 -2338 374 -3242 118 -141
312 -331 440 -430 427 -332 975 -568 1445 -623 145 -17 673 -17 825 0 290 33
618 136 935 294 146 73 152 76 342 200 110 72 156 97 167 91 20 -11 347 -334
1491 -1473 517 -515 985 -973 1040 -1019 121 -99 209 -146 256 -136 23 5 76
50 188 157 86 82 163 163 170 179 12 25 13 38 3 75 -32 118 -100 192 -1292
1389 -1037 1042 -1300 1312 -1322 1360 -9 19 -1 36 53 116 288 429 458 850
516 1284 26 194 25 758 -1 905 -99 564 -324 1054 -674 1470 -94 112 -295 310
-402 396 -457 367 -1007 594 -1560 643 -169 16 -500 21 -615 11z m555 -355
c1123 -126 2020 -897 2290 -1966 64 -252 75 -347 75 -659 0 -322 -9 -406 -75
-665 -237 -941 -1017 -1695 -1977 -1910 -188 -42 -310 -55 -543 -55 -340 0
-571 34 -848 125 -394 130 -741 344 -1038 640 -204 203 -329 369 -462 610
-214 387 -312 783 -312 1258 0 509 117 934 375 1366 127 212 359 480 565 653
205 173 529 360 784 453 376 138 794 192 1166 150z"/>
</g>
</svg>
