<?xml version="1.0" standalone="no"?>
<!DOCTYPE svg PUBLIC "-//W3C//DTD SVG 20010904//EN"
 "http://www.w3.org/TR/2001/REC-SVG-20010904/DTD/svg10.dtd">
<svg version="1.0" xmlns="http://www.w3.org/2000/svg"
 width="512.000000pt" height="512.000000pt" viewBox="0 0 512.000000 512.000000"
 preserveAspectRatio="xMidYMid meet">
<metadata>
Created by potrace 1.16, written by Peter Selinger 2001-2019
</metadata>
<g transform="translate(0.000000,512.000000) scale(0.100000,-0.100000)"
fill="#000000" stroke="none">
<path d="M2496 4565 c-32 -11 -182 -156 -704 -677 -451 -450 -670 -676 -683
-703 -10 -22 -19 -56 -19 -75 0 -83 74 -174 152 -185 24 -3 633 -5 1355 -3
l1311 3 39 31 c46 36 83 105 83 154 0 19 -9 53 -19 75 -13 27 -232 253 -687
707 -575 572 -675 668 -709 677 -51 14 -71 13 -119 -4z"/>
<path d="M1205 2186 c-62 -28 -115 -110 -115 -178 0 -18 9 -51 19 -73 13 -27
232 -253 687 -707 691 -688 691 -688 764 -688 73 0 73 0 764 688 455 454 674
680 687 707 10 22 19 56 19 75 0 70 -59 155 -123 179 -20 8 -440 11 -1350 11
-1082 -1 -1327 -3 -1352 -14z"/>
</g>
</svg>
