<?xml version="1.0" standalone="no"?>
<!DOCTYPE svg PUBLIC "-//W3C//DTD SVG 20010904//EN"
 "http://www.w3.org/TR/2001/REC-SVG-20010904/DTD/svg10.dtd">
<svg version="1.0" xmlns="http://www.w3.org/2000/svg"
 width="512.000000pt" height="512.000000pt" viewBox="0 0 512.000000 512.000000"
 preserveAspectRatio="xMidYMid meet">
<metadata>
Created by potrace 1.16, written by Peter Selinger 2001-2019
</metadata>
<g transform="translate(0.000000,512.000000) scale(0.100000,-0.100000)"
fill="#000000" stroke="none">
<path d="M2323 4905 c-175 -32 -331 -88 -468 -166 -730 -419 -953 -1346 -490
-2044 98 -148 238 -291 377 -384 l57 -39 -72 -17 c-204 -50 -473 -155 -652
-256 -214 -122 -445 -320 -560 -483 -136 -194 -207 -402 -209 -616 0 -90 3
-111 22 -151 112 -226 499 -389 1152 -483 849 -122 1900 -88 2598 84 401 99
638 231 715 398 19 41 22 63 21 167 -3 200 -67 391 -194 581 -64 95 -256 290
-360 365 -223 162 -480 284 -766 364 -182 51 -173 46 -128 76 200 133 381 341
489 564 265 548 155 1203 -274 1633 -221 221 -485 358 -790 408 -107 17 -370
17 -468 -1z m494 -314 c447 -112 774 -457 858 -906 25 -133 16 -356 -19 -484
-180 -647 -861 -999 -1489 -771 -313 115 -581 392 -680 706 -61 193 -73 385
-37 565 96 471 447 814 924 905 103 20 337 12 443 -15z m188 -2569 c321 -50
550 -120 796 -241 291 -145 495 -323 614 -536 73 -129 121 -334 90 -381 -99
-151 -727 -305 -1450 -354 -375 -26 -1006 -10 -1375 35 -479 58 -928 184
-1043 293 -23 22 -27 34 -27 82 0 31 9 91 19 132 126 493 766 889 1586 982
188 22 614 15 790 -12z"/>
</g>
</svg>
