<?xml version="1.0" standalone="no"?>
<!DOCTYPE svg PUBLIC "-//W3C//DTD SVG 20010904//EN"
 "http://www.w3.org/TR/2001/REC-SVG-20010904/DTD/svg10.dtd">
<svg version="1.0" xmlns="http://www.w3.org/2000/svg"
 width="512.000000pt" height="444.000000pt" viewBox="0 0 512.000000 444.000000"
 preserveAspectRatio="xMidYMid meet">
<metadata>
Created by potrace 1.16, written by Peter Selinger 2001-2019
</metadata>
<g transform="translate(0.000000,444.000000) scale(0.100000,-0.100000)"
fill="#000000" stroke="none">
<path d="M1315 4005 c-555 -87 -885 -487 -885 -1074 0 -218 80 -470 215 -678
124 -191 222 -296 722 -778 510 -491 710 -685 954 -922 217 -211 231 -211 434
-14 71 69 423 408 780 753 741 716 759 734 897 943 167 252 236 478 225 745
-13 322 -104 556 -293 743 -196 196 -472 297 -812 297 -267 0 -470 -81 -765
-301 -56 -42 -133 -106 -172 -141 l-70 -65 -80 74 c-102 94 -303 240 -411 299
-95 51 -217 96 -323 119 -87 18 -301 19 -416 0z m391 -305 c192 -49 409 -191
645 -424 183 -181 209 -182 379 -10 304 307 570 454 821 454 343 0 604 -135
717 -370 64 -132 86 -237 86 -410 1 -173 -17 -248 -95 -405 -106 -216 -226
-349 -899 -996 -157 -151 -402 -386 -544 -524 -142 -137 -262 -252 -267 -253
-5 -2 -132 115 -282 260 -1291 1249 -1210 1168 -1325 1326 -75 105 -152 258
-183 367 -20 68 -24 102 -23 225 1 174 23 280 86 410 75 155 221 271 413 329
149 45 342 53 471 21z"/>
</g>
</svg>
